mtllib asset_9649dddb-681f-464f-bbdc-46b99d862468.mtl
usemtl asset_9649dddb-681f-464f-bbdc-46b99d862468_mat
# https://github.com/mikedh/trimesh
v -0.45000000 -0.45000000 0.41000000
v -0.45000000 -0.45000000 0.49000000
v -0.45000000 0.45000000 0.41000000
v -0.45000000 0.45000000 0.49000000
v 0.45000000 -0.45000000 0.41000000
v 0.45000000 -0.45000000 0.49000000
v 0.45000000 0.45000000 0.41000000
v 0.45000000 0.45000000 0.49000000
v -0.34000000 0.36000000 0.45000000
v -0.34000000 0.36000000 1.25000000
v -0.34000000 0.44000000 0.45000000
v -0.34000000 0.44000000 1.25000000
v -0.26000000 0.36000000 0.45000000
v -0.26000000 0.36000000 1.25000000
v -0.26000000 0.44000000 0.45000000
v -0.26000000 0.44000000 1.25000000
v -0.04000000 0.36000000 0.45000000
v -0.04000000 0.36000000 1.25000000
v -0.04000000 0.44000000 0.45000000
v -0.04000000 0.44000000 1.25000000
v 0.04000000 0.36000000 0.45000000
v 0.04000000 0.36000000 1.25000000
v 0.04000000 0.44000000 0.45000000
v 0.04000000 0.44000000 1.25000000
v 0.26000000 0.36000000 0.45000000
v 0.26000000 0.36000000 1.25000000
v 0.26000000 0.44000000 0.45000000
v 0.26000000 0.44000000 1.25000000
v 0.34000000 0.36000000 0.45000000
v 0.34000000 0.36000000 1.25000000
v 0.34000000 0.44000000 0.45000000
v 0.34000000 0.44000000 1.25000000
v -0.39000000 -0.39000000 0.00000000
v -0.39000000 -0.39000000 0.45000000
v -0.39000000 -0.31000000 0.00000000
v -0.39000000 -0.31000000 0.45000000
v -0.31000000 -0.39000000 0.00000000
v -0.31000000 -0.39000000 0.45000000
v -0.31000000 -0.31000000 0.00000000
v -0.31000000 -0.31000000 0.45000000
v 0.31000000 -0.39000000 0.00000000
v 0.31000000 -0.39000000 0.45000000
v 0.31000000 -0.31000000 0.00000000
v 0.31000000 -0.31000000 0.45000000
v 0.39000000 -0.39000000 0.00000000
v 0.39000000 -0.39000000 0.45000000
v 0.39000000 -0.31000000 0.00000000
v 0.39000000 -0.31000000 0.45000000
v -0.39000000 0.31000000 0.00000000
v -0.39000000 0.31000000 0.45000000
v -0.39000000 0.39000000 0.00000000
v -0.39000000 0.39000000 0.45000000
v -0.31000000 0.31000000 0.00000000
v -0.31000000 0.31000000 0.45000000
v -0.31000000 0.39000000 0.00000000
v -0.31000000 0.39000000 0.45000000
v 0.31000000 0.31000000 0.00000000
v 0.31000000 0.31000000 0.45000000
v 0.31000000 0.39000000 0.00000000
v 0.31000000 0.39000000 0.45000000
v 0.39000000 0.31000000 0.00000000
v 0.39000000 0.31000000 0.45000000
v 0.39000000 0.39000000 0.00000000
v 0.39000000 0.39000000 0.45000000
vn -0.57735027 -0.57735027 -0.57735027
vn -0.57735027 -0.57735027 0.57735027
vn -0.57735027 0.57735027 -0.57735027
vn -0.57735027 0.57735027 0.57735027
vn 0.57735027 -0.57735027 -0.57735027
vn 0.57735027 -0.57735027 0.57735027
vn 0.57735027 0.57735027 -0.57735027
vn 0.57735027 0.57735027 0.57735027
vn -0.57735027 -0.57735027 -0.57735027
vn -0.57735027 -0.57735027 0.57735027
vn -0.57735027 0.57735027 -0.57735027
vn -0.57735027 0.57735027 0.57735027
vn 0.57735027 -0.57735027 -0.57735027
vn 0.57735027 -0.57735027 0.57735027
vn 0.57735027 0.57735027 -0.57735027
vn 0.57735027 0.57735027 0.57735027
vn -0.57735027 -0.57735027 -0.57735027
vn -0.57735027 -0.57735027 0.57735027
vn -0.57735027 0.57735027 -0.57735027
vn -0.57735027 0.57735027 0.57735027
vn 0.57735027 -0.57735027 -0.57735027
vn 0.57735027 -0.57735027 0.57735027
vn 0.57735027 0.57735027 -0.57735027
vn 0.57735027 0.57735027 0.57735027
vn -0.57735027 -0.57735027 -0.57735027
vn -0.57735027 -0.57735027 0.57735027
vn -0.57735027 0.57735027 -0.57735027
vn -0.57735027 0.57735027 0.57735027
vn 0.57735027 -0.57735027 -0.57735027
vn 0.57735027 -0.57735027 0.57735027
vn 0.57735027 0.57735027 -0.57735027
vn 0.57735027 0.57735027 0.57735027
vn -0.57735027 -0.57735027 -0.57735027
vn -0.57735027 -0.57735027 0.57735027
vn -0.57735027 0.57735027 -0.57735027
vn -0.57735027 0.57735027 0.57735027
vn 0.57735027 -0.57735027 -0.57735027
vn 0.57735027 -0.57735027 0.57735027
vn 0.57735027 0.57735027 -0.57735027
vn 0.57735027 0.57735027 0.57735027
vn -0.57735027 -0.57735027 -0.57735027
vn -0.57735027 -0.57735027 0.57735027
vn -0.57735027 0.57735027 -0.57735027
vn -0.57735027 0.57735027 0.57735027
vn 0.57735027 -0.57735027 -0.57735027
vn 0.57735027 -0.57735027 0.57735027
vn 0.57735027 0.57735027 -0.57735027
vn 0.57735027 0.57735027 0.57735027
vn -0.57735027 -0.57735027 -0.57735027
vn -0.57735027 -0.57735027 0.57735027
vn -0.57735027 0.57735027 -0.57735027
vn -0.57735027 0.57735027 0.57735027
vn 0.57735027 -0.57735027 -0.57735027
vn 0.57735027 -0.57735027 0.57735027
vn 0.57735027 0.57735027 -0.57735027
vn 0.57735027 0.57735027 0.57735027
vn -0.57735027 -0.57735027 -0.57735027
vn -0.57735027 -0.57735027 0.57735027
vn -0.57735027 0.57735027 -0.57735027
vn -0.57735027 0.57735027 0.57735027
vn 0.57735027 -0.57735027 -0.57735027
vn 0.57735027 -0.57735027 0.57735027
vn 0.57735027 0.57735027 -0.57735027
vn 0.57735027 0.57735027 0.57735027
f 2//2 4//4 1//1
f 5//5 2//2 1//1
f 1//1 4//4 3//3
f 3//3 5//5 1//1
f 2//2 8//8 4//4
f 6//6 2//2 5//5
f 6//6 8//8 2//2
f 4//4 8//8 3//3
f 7//7 5//5 3//3
f 3//3 8//8 7//7
f 7//7 6//6 5//5
f 8//8 6//6 7//7
f 10//10 12//12 9//9
f 13//13 10//10 9//9
f 9//9 12//12 11//11
f 11//11 13//13 9//9
f 10//10 16//16 12//12
f 14//14 10//10 13//13
f 14//14 16//16 10//10
f 12//12 16//16 11//11
f 15//15 13//13 11//11
f 11//11 16//16 15//15
f 15//15 14//14 13//13
f 16//16 14//14 15//15
f 18//18 20//20 17//17
f 21//21 18//18 17//17
f 17//17 20//20 19//19
f 19//19 21//21 17//17
f 18//18 24//24 20//20
f 22//22 18//18 21//21
f 22//22 24//24 18//18
f 20//20 24//24 19//19
f 23//23 21//21 19//19
f 19//19 24//24 23//23
f 23//23 22//22 21//21
f 24//24 22//22 23//23
f 26//26 28//28 25//25
f 29//29 26//26 25//25
f 25//25 28//28 27//27
f 27//27 29//29 25//25
f 26//26 32//32 28//28
f 30//30 26//26 29//29
f 30//30 32//32 26//26
f 28//28 32//32 27//27
f 31//31 29//29 27//27
f 27//27 32//32 31//31
f 31//31 30//30 29//29
f 32//32 30//30 31//31
f 34//34 36//36 33//33
f 37//37 34//34 33//33
f 33//33 36//36 35//35
f 35//35 37//37 33//33
f 34//34 40//40 36//36
f 38//38 34//34 37//37
f 38//38 40//40 34//34
f 36//36 40//40 35//35
f 39//39 37//37 35//35
f 35//35 40//40 39//39
f 39//39 38//38 37//37
f 40//40 38//38 39//39
f 42//42 44//44 41//41
f 45//45 42//42 41//41
f 41//41 44//44 43//43
f 43//43 45//45 41//41
f 42//42 48//48 44//44
f 46//46 42//42 45//45
f 46//46 48//48 42//42
f 44//44 48//48 43//43
f 47//47 45//45 43//43
f 43//43 48//48 47//47
f 47//47 46//46 45//45
f 48//48 46//46 47//47
f 50//50 52//52 49//49
f 53//53 50//50 49//49
f 49//49 52//52 51//51
f 51//51 53//53 49//49
f 50//50 56//56 52//52
f 54//54 50//50 53//53
f 54//54 56//56 50//50
f 52//52 56//56 51//51
f 55//55 53//53 51//51
f 51//51 56//56 55//55
f 55//55 54//54 53//53
f 56//56 54//54 55//55
f 58//58 60//60 57//57
f 61//61 58//58 57//57
f 57//57 60//60 59//59
f 59//59 61//61 57//57
f 58//58 64//64 60//60
f 62//62 58//58 61//61
f 62//62 64//64 58//58
f 60//60 64//64 59//59
f 63//63 61//61 59//59
f 59//59 64//64 63//63
f 63//63 62//62 61//61
f 64//64 62//62 63//63

